# xmcd
#
# Track frame offsets:
#	183
#	11623
#	27248
#	40983
#	54690
#	69315
#	80380
#	94215
#	113015
#	125025
#	142870
#	157180
#	167918
#	188613
#	206485
#	224253
#	239770
#	254550
#
# Disc length: 3564
#
# Revision: 1
# Processed by: cddbd v1.5.1PL0 Copyright (c) Steve Scherf et al.
# Submitted via: EasyCDDAExtractor 4.5.0.2
# Normalized: r0:TDELIM( - )
#
DISCID=040dea12
DTITLE=x - Das Beste Wunschkonzer
DYEAR=1988
DGENRE=Volksmusik und Schlager
TTITLE0=Cliff Richard - Congratulation
TTITLE1=Alain Morisod - Concerto pour un été
TTITLE2=Roy Black - Ganz in Weiss
TTITLE3=Monica Morell - Ich fange nie mehr was an einem Sonntag an
TTITLE4=Al Bano and Romina power - Felicità
TTITLE5=Che and Ray - Real Boogie
TTITLE6=Dshingis Khan - Dshingis Khan
TTITLE7=Tommy Steiner - Die Fischer von San Juan
TTITLE8=Telly Savalas - Some Broken Hearts Never Mend
TTITLE9=Heino - La Montanara
TTITLE10=Middle Of The Road - Soley Soley
TTITLE11=Trio Eugster - Dä söll ämal cho
TTITLE12=Boney M. - Ma Baker
TTITLE13=Andrea Jürgens - Und dabei lieb' ich euch beide
TTITLE14=Paola - Blue Bayou
TTITLE15=Polo Hofer - Kiosk
TTITLE16=Leslie Hamilton - No Hollywood Movie
TTITLE17=Rainy Day - El Dorado
EXTD=CD von I.B.\n
EXTT0=
EXTT1=
EXTT2=
EXTT3=
EXTT4=
EXTT5=
EXTT6=
EXTT7=
EXTT8=
EXTT9=
EXTT10=
EXTT11=
EXTT12=
EXTT13=
EXTT14=
EXTT15=
EXTT16=
EXTT17=
PLAYORDER=
